<svg id="Layer_1" data-name="Layer 1" xmlns="http://www.w3.org/2000/svg" viewBox="0 0 361.09 394.47"><title>Bad Hagrid</title><path d="M533.15,560.61a2.47,2.47,0,0,1,.2-1,8.84,8.84,0,0,1,1.17.87,4,4,0,0,1-1.37.15" transform="translate(-173.43 -166.14)"/><path d="M173.43,560.61c0-.1.26-.15.41-.15,0,.15-.25.15-.41.15" transform="translate(-173.43 -166.14)"/><path d="M529.59,560.61c0-.1.21-.15.36-.15,0,.15-.26.15-.36.15" transform="translate(-173.43 -166.14)"/><path d="M223,378.24c.11,0,.11.25,0,.35-.15.31.16,0,.11.15h0a21.62,21.62,0,0,1,2,4.37c.81,4.78,1.42,9.55,2.08,14.38.71,5,1.22,10.11,2.08,15.14.66,4.27,1.63,8.43,2.54,12.65,1.48,6.5,2.85,13,4.57,19.45,2.8,10.47,5.44,21.09,11,30.48a333.92,333.92,0,0,0,18.39,28.91c3.55,4.83,8.89,8.38,13.56,12.24,3.66,3,7.67,5.69,11.43,8.54.46.3.66.91,1,1.37a8.09,8.09,0,0,1-1.88.25,4.52,4.52,0,0,1-1.53-.56,74.65,74.65,0,0,1-27.13-20.21c-4.57-5.39-8.28-11.54-12.09-17.53-3-4.83-5.69-9.81-8.28-14.89-4.26-8.48-7.06-17.57-9.5-26.77-2.23-8.43-4.21-16.91-6.09-25.4-1.12-5.08-1.78-10.31-2.59-15.44-1.22-7.82-2.44-15.6-3.56-23.42-.46-3.3-.56-6.7-1.07-10a62.54,62.54,0,0,0-1.47-6.19c0-.21-.2-.31-.35-.46-.21.2-.61.46-.61.71-.11,1.78-.05,3.56-.05,5.33,0,3.76.1,7.52-.06,11.28-.1,2.29-.71,4.62-1,6.91-.71,6.5-1.17,13-2.08,19.51A139.49,139.49,0,0,0,211,434.12c.36,10.36.66,20.77,4.58,30.63a140.39,140.39,0,0,0,7.16,16.05c1.78,3.25,4.57,5.89,6.91,8.84,6.8,8.64,16,14.17,25.3,19.71,4.67,2.8,9,6,13.56,9,1.68,1.07,3.4,2,5.08,3,.36.2.86.76.81.87-.25.4-.61,1-1,1a10.25,10.25,0,0,1-2.75-.25c-4.62-1.07-8.07-4.22-12-6.61-6.55-4.06-13.2-7.92-19.55-12.24A57.36,57.36,0,0,1,226,491.67c-2.74-3.65-5.84-7-8.43-10.72-3.56-5.08-5.34-11-7.16-16.86-2.09-6.81-3.81-13.62-3.66-20.88.2-7.47-.56-15-.31-22.45.16-5.69,1.27-11.33,1.93-17,.36-2.9.66-5.79,1-8.69.81-6.09,1.73-12.19,2.54-18.29.25-1.82.41-3.75.51-5.63.2-5,.45-10,.45-15s-.5-9.7-.35-14.53c0-2.23,1.32-4.37,1.62-6.65a42,42,0,0,0,.31-6.76V313a43,43,0,0,1,.05-5.08c.76-6.1,1.47-12.19,2.54-18.29.76-4.57,1.83-9.14,3.05-13.66a84.7,84.7,0,0,1,3.55-11.23c2.39-5.89,4.83-11.74,7.78-17.37,3.15-6,6.8-11.74,10.36-17.53,2.49-4.07,5-8.13,7.77-12a74.33,74.33,0,0,1,14.07-15c4.52-3.65,8.74-7.72,13.41-11.22,5.44-4.07,11.13-7.73,16.82-11.43,4.93-3.15,10-6.15,15-9.15,2.33-1.42,4.62-3.15,7.21-4,5.28-1.78,10.46-.51,15.65,1,4.06,1.16,8.33,1.67,12.49,2.43,2.29.41,4.68.51,6.91,1.07,4.78,1.12,9.5,2.34,14.18,3.81,5.23,1.63,10.46,3.35,15.54,5.39,8.48,3.4,17.17,6.5,25.25,10.71,6.4,3.36,12.24,7.88,18,12.3,3.71,2.89,6.5,7,10.16,9.9,8.79,7.12,14.63,16.57,21.24,25.46,5.53,7.41,9.44,15.79,13,24.33,2.18,5.18,4.57,10.31,6.6,15.54,3,7.73,5.79,15.55,8.64,23.37,2,5.69,4.11,11.33,5.94,17.07,1.88,6,3.41,12.14,5.24,18.14,1.62,5.28,3.55,10.41,5.18,15.64,2.38,7.67,4.82,15.29,5,23.42.15,6.91,1,13.82.86,20.68-.1,8.58-.81,17.22-1.47,25.8-.46,6-1.17,12-2,18-.45,3-1.62,5.94-2.38,8.94-.21.76.15,1.67,0,2.44-1,5.69-2.09,11.32-3.15,17a4.22,4.22,0,0,1-1.07,2.34,4.55,4.55,0,0,1-2.54.36,2.1,2.1,0,0,1-.41-1.43c.77-4,1.22-8.07,2.6-11.88a38.31,38.31,0,0,0,2-11.89c.25-4.88,1.32-9.75,1.93-14.63.25-2.39.35-4.78.51-7.16.5-7.78,1.11-15.5,1.47-23.27a186.39,186.39,0,0,0,.46-19.05c-.46-10-2.75-19.61-5.8-29.06-2.33-7.16-4.57-14.37-6.85-21.59-1.63-5.23-3.36-10.41-5-15.64-2.54-7.93-4.88-16-7.67-23.78-2.54-7.06-5.59-13.92-8.49-20.88-2-4.72-3.86-9.55-6.25-14.12-3.14-5.94-6.55-11.73-10.1-17.42-2.6-4.07-5.64-7.88-8.64-11.69-2.24-2.79-4.67-5.49-7.11-8.18-2.64-2.89-5.23-5.84-8.13-8.53a71.78,71.78,0,0,0-8.13-6.66c-5.38-3.71-10.87-7.26-16.36-10.77-1.42-.91-3.25-1.11-4.82-1.88-9.2-4.21-18.65-7.67-28.15-11.17-8-3-16.25-4.52-24.48-6.4-4.42-1-8.94-1.22-13.36-2.19a10.49,10.49,0,0,1-5.13-2.74c-2.14-2.08-4.27-1.73-6.35-.66-3.51,1.83-6.86,4-10.21,6-6.25,4-12.55,7.78-18.65,12-6.65,4.63-13.15,9.6-19.61,14.53a92,92,0,0,0-21.28,22.86c-4.67,7.06-9,14.33-13.11,21.74a124.82,124.82,0,0,0-11.53,27.49c-1.93,6.91-3.91,13.82-5.49,20.77-.81,3.51-.71,7.17-1.11,10.77-.26,1.88-.82,3.76-.92,5.69-.1,1.58.36,3.2.41,4.83.05,3.15-.1,6.3,0,9.4.3,8.23.81,16.51.91,24.74.05,2.84-.3,5.69.51,8.53.36,1.12-.25,2.54-.35,3.81a16.87,16.87,0,0,0,.1,2.75c.15,1.52,1.13,1.05,1.07,4.72-.25.25.25,1.47.25,2.29-.05,1.77.59,2.82.48,4.6.51.15-.08,1,.48,1.19" transform="translate(-173.43 -166.14)"/><path d="M415.65,352.84c-1-1-1.93-2.64-3.15-2.95a35.39,35.39,0,0,0-9.2-1c-4,.11-7.87.92-11.83,1.43-.46.05-1.17.2-1.48-.05-2.79-2.24-4.67-.05-6.8,1.27-4.22,2.54-8.28,5.28-12.7,7.31-5.24,2.44-10.57.76-15.7-1.07a78.8,78.8,0,0,0-8.18-2.79c-1.12-.3-2.54.25-3.71.76C336,359,329,362,322.43,365.69c-6.91,3.81-13.87,7.82-18.75,14.17-3.09,4.12-5.33,8.94-7.92,13.46-.76,1.33-1.37,2.8-2.24,4.12a1.87,1.87,0,0,1-1.67.41,1.94,1.94,0,0,1-.51-1.68c2.49-8.33,6-16.26,12.6-22.1a83.8,83.8,0,0,1,13.51-9.55c5.23-3,10.77-5.49,16.21-8.08,1.11-.56,2.43-.66,3.6-1.11a8.38,8.38,0,0,0,1.68-1c-.61-.36-1.17-.66-1.78-1-1.68-.86-3.45-1.57-5-2.59-.51-.35-.56-1.42-.81-2.13a8.61,8.61,0,0,1,2,.41c2.44,1.06,4.73,2.59,7.32,3.2,2.23.51,4.77.2,7.16,0,1.47-.1,2.9-.76,4.37-.92.66-.05,1.32.46,2,.71a18.11,18.11,0,0,0-1.47,1.27c-.36.36-.71.77-1.07,1.17.46.1.86.26,1.32.36a48.49,48.49,0,0,1,6.45,1.57,12.51,12.51,0,0,0,11.53-.86c3.81-2.29,8.08-4.22,11.13-7.32,3.5-3.55,5.13-8.58,6.09-13.61a44.32,44.32,0,0,0,.56-5.89c.31-4.32-1.32-8-3.45-11.74-2.34-4.06-3.91-8.63-6.25-12.65-2.89-4.87-6.2-9.5-9.5-14.12-2.89-4.16-5.69-8.48-9.19-12.14s-8.08-5.64-13.11-4.88c-2.69.41-5.44,2.09-7.72,3.76s-3.76,4-5.64,5.95c-.51.5-1.17.86-1.73,1.32-.1-.82-.51-1.78-.15-2.34,1.12-1.93,2.23-4.06,4-5.38a36.67,36.67,0,0,1,8.89-5.34,10.66,10.66,0,0,1,7.06-.46c4.42,1.68,9.2,3.2,12.14,7.37,1.17,1.63,2.24,3.35,3.46,4.93,4.37,6,8.84,11.94,13.26,17.88a11.1,11.1,0,0,1,1.83,3.05c1.32,4.16,4,7.31,7,10.31a2.07,2.07,0,0,0,.81.46c2.59,1,3.15,2.74,3.1,5.53a30.38,30.38,0,0,0,1.67,9.66c1.58,5.08-2.64,12.8-6.14,14.78a14.44,14.44,0,0,0-1.78,1.73,8,8,0,0,0,2.13.25c3.46-.41,6.86-1.22,10.32-1.42a49,49,0,0,1,8.63.51,42.21,42.21,0,0,1,6.25,1.52c1.12.3,2.08,1.12,3.2,1.42,2.9.76,4.32-2,6.25-3.15a59.53,59.53,0,0,0,8.43-6.75c2.29-2,4.88-4.07,6.45-6.66a24.42,24.42,0,0,0,3.1-8.84c.51-3.05.05-6.3.1-9.45.11-3,.46-5.94.46-8.94,0-3.2-.2-6.35-.46-9.55-.66-7.41-.81-14.93-2.23-22.2a48.16,48.16,0,0,0-5.64-14.63,169.63,169.63,0,0,0-12.14-17.83,143.92,143.92,0,0,0-12-14.07c-6.86-7-14.58-13.16-24.18-16.05-8.33-2.54-16.77-4.68-25.25-6.51-4.22-.91-8.69-.61-13-1.16-4.63-.56-9.2-1.48-13.77-2.29a40.37,40.37,0,0,1-4.83-1.27c-.45-.15-.81-.81-1.22-1.22.46-.25,1-.76,1.43-.71,2,.05,4,.25,5.89.46,2.44.3,4.82.66,7.21,1,11.38,1.58,23,1.83,34,5.59,5.79,2,11.94,3.25,17.37,5.89a72.06,72.06,0,0,1,23.17,18.24c6.5,7.67,13.05,15.19,18.44,23.67a75.5,75.5,0,0,1,9.24,20,57.57,57.57,0,0,1,1.58,12.55c.35,7.46.35,14.93.56,22.4.1,4,.61,8.08.45,12.09-.35,7.16-1.78,14.12-7.72,19.1-2.34,1.93-4.93,3.56-7.36,5.44-1.33,1-2.39,2.28-3.76,3.15-1.53.91-3.31,1.42-4.88,2.23a15,15,0,0,0-1.63,1.37,5.6,5.6,0,0,0,1.27,1.17c4.32,1.83,8.69,3.51,13,5.44.66.35,1,1.57,1.47,2.33a7.76,7.76,0,0,1-2.69-.1c-5.13-1.67-10.21-3.5-15.39-5.13-2.85-.91-3.56-.35-3.81,2.59a7.86,7.86,0,0,1-.71,2,9.39,9.39,0,0,1-1.22-1.78c-1-2.33-.31-3.81,1.88-4.21a4.85,4.85,0,0,0,1.06.2l-1-.3" transform="translate(-173.43 -166.14)"/><path d="M249,300.51c.36-6.45.41-12.7,1.07-18.84a49.45,49.45,0,0,1,12.6-28.55c3.66-4.07,7.77-7.73,11.58-11.69,3.3-3.4,6.25-7.11,9.6-10.46a145,145,0,0,1,12.6-11.69c4.78-3.81,10.06-7.11,15.14-10.56,4.42-3,8.89-5.9,13.41-8.74a3.09,3.09,0,0,1,2.64.3,2.28,2.28,0,0,1,.15,2.24,12.48,12.48,0,0,1-3.3,3.45c-7,4.68-14.07,9.05-20.93,13.82a87.18,87.18,0,0,0-10.41,9c-6.2,6.1-11.89,12.65-18.29,18.49a73.65,73.65,0,0,0-11.48,13.31,49.67,49.67,0,0,0-8.33,21.19,148.57,148.57,0,0,0-1.47,24.74c.1,2.64.6,5.33.45,7.92-.76,11.13,3.05,21.13,7.06,31.24,2.95,7.47,4.88,15.4,7.22,23.17.61,2.18.66,4.62,1.67,6.65.61,1.22,2.39,2.09,3.86,2.7a52.13,52.13,0,0,0,18.85,4.16,4.81,4.81,0,0,1,2,.92c-.56.5-1.06,1.42-1.72,1.52A34,34,0,0,1,272.29,382c-1.42-.66-3.05-.72-4.57-1.27-.87-.31-2.24-.92-2.34-1.58a173.51,173.51,0,0,0-10.21-34.39c-1.93-4.67-3.15-9.7-4.62-14.58a18.5,18.5,0,0,1-1-4.67c-.25-8.23-.4-16.51-.56-25" transform="translate(-173.43 -166.14)"/><path d="M332.84,487.46c1.32,2.44,2.75,4.52,3.91,6.75,2.09,3.81,3.92,7.67,6,11.48,1.57,2.9,3.25,5.8,5,8.59a3.36,3.36,0,0,0,3.35,1.68c1-.11.67-1.15.67-1.15-.09-.88,0-.43-.47-1.5A51.86,51.86,0,0,1,347,499.85c-1.12-5.94-2.59-11.78-4-17.63-.61-2.69,1.33-3.91,3.05-4.87,5.64-3.2,11.28-2.69,16.72.71C367,480.7,371,483.8,372,488.88A20.75,20.75,0,0,1,371.6,499a33.49,33.49,0,0,1-10.36,14.68c-.91.76-2.13,1.58-2.39,2.54-.71,2.74-2.54,2.85-4.72,2.69a19.24,19.24,0,0,0-4.17.1c-3.65.72-4.42-2.64-6.3-4.36-1-.87-1.42-2.44-2.43-3.2a3.3,3.3,0,0,0-3-.11,30.31,30.31,0,0,0-5.79,4.32,4.49,4.49,0,0,0-1.53,3.35,42.34,42.34,0,0,0,2.09,9.76c.61,1.67-.16,2.54-1,2.69a3.07,3.07,0,0,1-2.64-1.42,26.89,26.89,0,0,1-1.58-6.2c-.61-3.66-1.11-7.37-1.52-11-.2-1.63,0-3.3-.05-4.93-.15-6.1-.36-12.19-.46-18.29a21.6,21.6,0,0,1,.46-3.61c.1-.91.2-1.77.3-2.64a15.65,15.65,0,0,1,3.56,1.17,11.43,11.43,0,0,1,2.74,2.9m20.83,22.1c1.37,2.23,2.74,2.54,4.47.5,2.34-2.79,4.17-5.94,6.4-8.79a18.2,18.2,0,0,0,3.61-9.9c.3-3.61-2.39-5.95-4.83-8.23a13.32,13.32,0,0,0-10.87-3.76c-4,.3-4.93,2-3.91,5.89,1.17,4.42,2.13,8.94,3.1,13.46.71,3.41,1.37,6.86,2,10.83m-21.84-16.77L330.05,491c-.2.46-.61.92-.61,1.37.25,5.49.66,10.93.81,16.41.05,1.93.87,1.93,2.09,1.22,2.28-1.32,4.52-2.23,7.21-1.27a5.54,5.54,0,0,0,2.39-.2,5.25,5.25,0,0,1-1.83-.46c-.36-.15-.56-.71-.76-1.17a35.93,35.93,0,0,0-1.83-4.31c-1.78-3.15-3.76-6.2-5.69-9.81" transform="translate(-173.43 -166.14)"/><path d="M323.85,285.27c-.91-.15-1.73-.61-2.44-.45-3.25.55-6.55,1.16-9.8,2a3.59,3.59,0,0,0-2.08,2.13c-.87,3.71-3.2,6-7,6.4a33.66,33.66,0,0,1-5.59,0c-.36,0-.71-.35-1-.56.31-.25.56-.61.92-.71,2.33-.61,4.67-1,6.9-1.78a17.09,17.09,0,0,0,3.81-2.38c.31-.26.31-.92.41-1.38-.35-.05-.81-.3-1.12-.25-2.49.71-5.18,1.12-7.41,2.29-8.28,4.26-16.36,8.84-24.54,13.2a48.58,48.58,0,0,1-6.76,3.21c-.76.3-1.82-.36-2.74-.56.66-.56,1.32-1.07,1.93-1.63s1.53-1.32,1.42-1.88c-.5-3.3,2-4.37,4.12-5.43,6.55-3.41,13.16-6.66,19.81-9.86,1.68-.81,3.45-1.47,5.18-2.18.21-.11.51-.26.66-.21,3.76,1.37,6.15-1.57,9-2.84a13.55,13.55,0,0,1,8.74-.87,22.51,22.51,0,0,0,6.66.11c2-.11,2.94.5,3.5,2.49.82,2.74,2.44,5.38,1.78,8.38-1,5-2,10-5,14.42-1.27,1.88-1.73,4.37-2.54,6.56a4.41,4.41,0,0,1-.76,1.67c-9.7,10.72-21.74,17.94-35.15,23-.06.05-.11.15-.16.15-1,0-2-.05-3-.1a15.3,15.3,0,0,1,2.33-1.68,152.87,152.87,0,0,0,24.34-14.17c6-4.37,9.55-10.47,12.9-16.77a106.89,106.89,0,0,0,4.57-10.51c.2-.46-.1-1.12-.15-1.68a3.51,3.51,0,0,1-.41,1.27c-3.91,5.18-6.09,11.63-11.33,15.85-2.28,1.83-4.21,4.57-7.67,4.73a5.67,5.67,0,0,0-.71.2c0-.2,0-.51.2-.66a35.14,35.14,0,0,1,4.27-4.27c4.37-3.2,7.52-7.47,10.21-12,1.73-2.89,3.1-6,4.63-9,.81-1.62,1.06-3.15-.87-4.32m-52.22,17.27c1.83-1,3.71-2,5.49-3,.3-.21.4-.66.61-1-.41-.1-.92-.46-1.17-.3-1.83,1.06-3.66,2.18-5.39,3.35-.15.1-.05.66.46,1" transform="translate(-173.43 -166.14)"/><path d="M421.13,469.78c.72.56,1.27,1,1.88,1.42a16.2,16.2,0,0,0,.26-2.18,37.75,37.75,0,0,1,2.08-18.24,13.58,13.58,0,0,1,2.08-3.71,2.67,2.67,0,0,1,2.14-.66c.35,0,.86,1.27.76,1.83-.66,2.95-1.78,5.79-2.19,8.74-.91,6.65-2.84,13.26-1.37,20.11.82,3.56,4.83,5.49,8.84,3.71,3.51-1.57,6.66-3.71,10-5.54a1.86,1.86,0,0,1,1.47.41c.21.15.21.86.05,1.22C444,484.51,433.22,489.54,426,483a16.22,16.22,0,0,1-5.74-10.52,2.55,2.55,0,0,0-.51-1.07c-1.88-2.59-3.76-5.18-5.74-7.72a6.62,6.62,0,0,0-1.52-1.06,6.25,6.25,0,0,0-.36,1.67v7.11c0,1.38.36,2.85-1.42,3.51-.25.1-.41.61-.61,1,.46.1.91.4,1.32.3,1.12-.25,6.13-1.87,7.29-2.07.67-.15,1.22-.62.91.8-.4,1.88-4.54,4.83-6.27,6.1-2.34,1.62-1.83,4.36-1.57,6.8.25,2.9.66,5.85.81,8.79,0,.46-1.17,1.48-1.42,1.37-.77-.3-1.88-1-2-1.62a93.06,93.06,0,0,1-1.07-10c-.15-1.78.1-3.51-1.63-5-1.27-1.07-.4-2.49.76-3.61a3.71,3.71,0,0,0,1.27-2.18c-.05-5.69-.2-11.43-.5-17.12-.1-2.08-.77-4.11-.92-6.2-.05-.76.66-1.62,1-2.44a7.4,7.4,0,0,1,2.49,1.33c.71.76,1,2,1.52,2.89,1.73,3,3.61,5.94,5.33,8.94,1.27,2.19,2.39,4.42,3.76,6.76" transform="translate(-173.43 -166.14)"/><path d="M319.83,513.65c.16.91-1.82,2.31-2.33,2.92s-1.62.81-2.54,1a9.77,9.77,0,0,1-1.67-.15c-1.58,0-3.31-.41-3.71,2.08a3.38,3.38,0,0,1-2.44,1.88c-1.58.1-1.37,1-1.17,1.83.91,4.22,2,8.43,3,12.7.15.56.45,1.17.66,1.73.35-.46.76-.92,1.06-1.37,1.33-2,2.6-4,3.87-6a42.41,42.41,0,0,0,5.53-14.17c.36-1.93.71-1.27,1.53-.46a5.29,5.29,0,0,1,1.72,5c-.61,6.55-3.65,11.63-7.77,16.36a10.16,10.16,0,0,0-1,1.62c-1.33,2.39-4.63,3.91-7.07,3.15a1.76,1.76,0,0,1-1-1.37c.25-2.08-.71-3.66-1.53-5.49a34.73,34.73,0,0,1-2.54-8.33c-1.16-7.57-2.13-15.19-3-22.81-.16-1.57-1.53-3.15.3-4.82,2.74-2.44,5.69-4.42,9.4-4.88,1.17-.1,2.39,0,3.55,0a4.73,4.73,0,0,1,5,4.52,21.67,21.67,0,0,1-1.57,10c-.46,1.17-1,2.34-1.47,3.45-.26.46-.61.87-.92,1.33-.77-.51-.69-.77-1.17-1.33-1.83-2.13-.56-4.47-.3-6.7.2-1.83.71-3.66.81-5.49.15-2.28-1.52-3.15-3.56-1.93a41.06,41.06,0,0,0-4.52,3.1c-.66.51-1.52,1.42-1.47,2.13.41,4.63.91,9.25,1.52,13.82.05.56.82,1,1.22,1.48a6.13,6.13,0,0,0,.71-1.27,27.57,27.57,0,0,1,1.12-3.61,38.67,38.67,0,0,1,3.5-4.17,6.82,6.82,0,0,0,2.14,4c-.51.1-2.35,1.82-4.16,2a5.2,5.2,0,0,0,.86,0c2.34-.51,4.67-1,7.26-1.53" transform="translate(-173.43 -166.14)"/><path d="M383.64,369.6c5.9-1,11.33.15,16.72,1.52,2.33.56,5.64,4.32,5.64,6.56a7.57,7.57,0,0,1-6.05,7.16c-4,1-7.92.46-11.94-.3-2.49-.46-5.18.2-7.77.45-1.17.1-2.29.71-3.45.82-4.88.5-9,3-13.16,5.08-2.29,1.06-4.47,2.43-6.86,3a6.7,6.7,0,0,1-8.23-7.77c1-5.79,4.73-9.14,9.7-11.43,2.85-1.32,5.69-2.59,8.59-3.76a14.38,14.38,0,0,1,8.43-1c2.54.56,5.39-.21,8.38-.36M392,382.3c2.69.41,5.43.46,7.77-1.07,3.91-2.54,4.42-4.16,1.12-6.7a5.46,5.46,0,0,0-3.41-.81c-5.08,0-10.16.3-15.24.45a3.47,3.47,0,0,0-1,.1c-4.37,1-8.74,2.54-13.21,2.8-5.34.25-9.81,2.44-14.33,4.72-3.2,1.68-4,7.27-1.12,8.69,2.44,1.27,5,.41,7.37-1,2.85-1.62,5.64-3.5,8.74-4.57,7.36-2.59,14.93-4.26,23.32-2.64m-21.09-10.41c-2,.61-4.06,1.17-6.09,1.77a10.23,10.23,0,0,0-1.42.87c.6.2,1.21.71,1.77.61,2.14-.36,4.27-1,6.45-1.42,1.27-.26,2.6-.41,3.87-.61a23.77,23.77,0,0,0-4.58-1.22" transform="translate(-173.43 -166.14)"/><path d="M408.43,308.49c-10,.71-17.57-3.91-24-10.67-1.93-2-3-4.83-4.42-7.31a7.71,7.71,0,0,0-1.07-2c-4.78-4.06-3.05-9.6-3.3-14.63-.05-.2,1.37-.81,1.72-.61,3.31,1.78,6.46,3.66,9.71,5.49,1,.56,2.18.86,3.15,1.47,6.25,4.12,13.36,4.22,20.37,4,2.44-.11,4.82-1,7.26-1.43a4.89,4.89,0,0,1,1.88.26c-.35.51-.61,1.22-1.12,1.52a10.48,10.48,0,0,1-3.6,1.63c-1.88.25-2.54,1.27-3.51,2.74-2.59,4-5.48,7.11-11.12,7.21s-10-2.13-14.43-4.82c-.36-.21-.51-.76-.76-1.17a8.64,8.64,0,0,1,1.17.1c3.2,1.12,6.3,2.39,9.5,3.4,4.52,1.43,11.48-1.42,13.51-5.43,0-.15-.46-.86-.71-.86a26.43,26.43,0,0,0-4.07-.06c-3.76.41-7.46-.91-11.38.36-2.23.71-5-1.12-6-3.86-.81-2.34-2-4.06-4.62-4.72-1.48-.36-2.7-1.63-4.07-2.39-.2-.1-.91.3-.91.45.51,3.46,1,6.91,3.66,9.66,1,1.06,1.22,2.84,1.88,4.26.81,1.63,1.47,3.46,2.69,4.68,3.6,3.71,7.57,7.16,12.8,8.23a28.48,28.48,0,0,0,8.84.35c4.16-.51,8.33-1.52,12.5-2.23a7.34,7.34,0,0,1,2.28.3,11.21,11.21,0,0,1-1.17,2.54c-1.88,2.34-4.77,2.09-7.26,2.64-1.73.41-3.51.56-5.39.92" transform="translate(-173.43 -166.14)"/><path d="M480.82,466.22c1.73-1.88,3.31-3.66,4.93-5.43.46-.51,1-1.07,1.42-1.63.16.92,2.44-4.22,3.46-6.76,2-5.18.15-8.68-4.12-11.07a25.46,25.46,0,0,0-6.5-2.08c-1.57-.41-2.13.66-1.88,2a46.51,46.51,0,0,0,1.58,5.74c2,5.54,1.83,11.23.91,16.92-.1.61-.81,1.11-1.27,1.67-.41-.61-1.07-1.11-1.17-1.78-.45-2.74-.61-5.48-1.12-8.17-.86-4.78-1.82-9.55-3-14.23-1.07-4.27,2.44-8.38,6.65-7.26,5.95,1.52,11,4.72,13.51,10.41,1.27,2.74,2,6.76,1,9.25-1.73,4-3.15,8.33-6.66,11.48-2.33,2.08-3.81,5-5.79,7.47a28.13,28.13,0,0,1-4.57,4.62c-.66.51-2.08.05-3.2,0,.05-.87-.2-2,.2-2.64,1.73-2.85,3.66-5.59,5.69-8.54" transform="translate(-173.43 -166.14)"/><path d="M405.64,490.35a31.19,31.19,0,0,1-.2,3.2,11.12,11.12,0,0,1-1.93-2.59c-1-2.69-1.73-5.54-2.59-8.33-1.07-3.4-2.19-3.71-4.78-1.37a40,40,0,0,1-3.71,2.74c-1.93,1.37-2.74,3.05-1.67,5.49,1.62,3.71,2.18,7.92,5.13,11.07.5.46.56,1.32.81,2-1.12-.16-2.69,0-3.2-.61-2.08-2.7-3.91-5.59-5.79-8.49-1-1.52-1.73-3.3-2.95-4.57s-1.12-2.44-1.07-3.86a10.45,10.45,0,0,0-.1-3.4c-1.27-4.68-2.69-9.35-4-14.08-.15-.55.41-1.32.61-2,.86.36,2.24.41,2.54,1.07a79.54,79.54,0,0,1,3.4,7.72c.61,1.58,1,3.3,1.53,4.93.45,1.22,2.54,1.42,3.81.51a23.55,23.55,0,0,1,4-2.49c2.34-1,2.24-2.64,1.63-4.57-1.22-3.81-2.59-7.57-3.66-11.38a3.65,3.65,0,0,1,.71-2.85,3,3,0,0,1,2.39.56,15.3,15.3,0,0,1,2.33,4.32c1.38,3.91,3.15,7.82,3.66,11.89A74.14,74.14,0,0,0,405.23,487c.26,1.07.16,2.18.41,3.4" transform="translate(-173.43 -166.14)"/><path d="M431.4,258.7c-4.37.61-7.88-2.08-11.79-3.25-1.37-.4-2.59-.81-3.86.41a2.87,2.87,0,0,1-2.34.41c-5.28-1.27-10.51-2.8-15.85-3.92-1.11-.25-2.54.61-3.76,1.17-4,1.93-8,4-12,5.9a23.24,23.24,0,0,1-5.53,1.93c-1.68.3-3.56.35-4.47-1.88s-.21-3.51,2.18-3.66c5.18-.31,9.35-3.25,13.77-5.39a33.6,33.6,0,0,0,5.18-2.79c3.71-2.39,7.37-.61,10.92.1,5.44,1.12,10.77,2.49,16.05,4.07,3.36,1,6.51,2.74,9.81,4a2.45,2.45,0,0,1,1.73,2.94" transform="translate(-173.43 -166.14)"/><path d="M275.08,271.15c4-3,7.93-5.74,11.74-8.74,2.84-2.23,5.43-4.72,8.18-7.11a11.52,11.52,0,0,1,2.69-2.13c1.42-.61,2.79-1,4.22.71.76.91,2.54.91,3.86,1.42,5.89,2.24,12.39-.3,18.23,2.49,2,1,2.8,2,2,4.06s-2.29,1.68-4,1.27c-5.64-1.47-11.38-2.69-17-4.31-5.08-1.48-8.34,1.37-11.79,4.26-5,4.12-10.21,8-15.29,12a26.62,26.62,0,0,1-3.05,2.49c-2.08,1.12-4.11,2.85-6.81,1.58a3.4,3.4,0,0,0-1,0l-2.34.15c.66-.66,1.32-1.32,2-1.93,2.29-1.83,4.58-3.61,6.91-5.39.36-.25.81-.45,1.37-.86" transform="translate(-173.43 -166.14)"/><path d="M443.59,443.77a5.13,5.13,0,0,1,2-1.47c1.32-.36,2.69-.41,4-.77,4.62-1.27,9.15,1,9.55,5.54.15,1.78-1.37,4-2.49,5.69-1.72,2.54-3.81,4.88-5.69,7.26-.25.26-.66.46-.71.72,1.18,10.48,0,12.42-2.54.66-.15-.21-.19.13-.45,0,0,.35-.41.37-.31.68,2.08,5.94,6.66,8.63,12.55,9.6a5.14,5.14,0,0,1,2,.56,14,14,0,0,1,2.24,1.88,11.71,11.71,0,0,1-2.54.56,18.71,18.71,0,0,1-10.88-2.54c-4-2.44-5.89-4.58-7.11-9.2a1.22,1.22,0,0,1,.1-.86c2.49-2.95.87-6.25.77-9.4-.11-2.9-.36-5.79-.51-8.94m8.13,8.38a35.37,35.37,0,0,0,3.65-4.32c.41-.56,0-1.67-.05-2.54-2.13.36-4.67.1-6.25,1.22-1.11.76-1.06,3.41-1.22,5.29-.1.81.61,1.72.92,2.64.91-.66,1.78-1.37,3-2.29" transform="translate(-173.43 -166.14)"/><path d="M471,463.58c.56,3.76-.66,7.47,1.32,10.77.15.2-.15.61-.25.91-.87-.3-2.24-.35-2.49-.91a22.37,22.37,0,0,1-1.58-5.69c-1-6.3-1.72-12.65-2.59-19-.46-3.1-1-6.2-1.52-9.29a10.23,10.23,0,0,1,.2-1.68,8.9,8.9,0,0,1,1.88.81c2.54,1.68,3.05,4.57,3.4,7.17.82,5.48,1.12,11.07,1.63,16.86" transform="translate(-173.43 -166.14)"/><path d="M323.6,285.27c-1.17,2.19-2.09,4.68-3.76,6.51a66.08,66.08,0,0,1-8.49,7.51c-1.67,1.27-3.75,1.88-5.68,2.75s-3.87,1.77-5.85,2.49a13,13,0,0,1-3.86,1,71.56,71.56,0,0,1-8.18.51,10.37,10.37,0,0,1-3.7-.76,14.06,14.06,0,0,1-2.44-1.88,11.74,11.74,0,0,1,3.2-.31c5.53.82,10.92.66,16.1-1.88,2.74-1.32,5.79-1.93,8.48-3.3a26,26,0,0,0,9.76-8.33,30.21,30.21,0,0,1,4.42-4.32" transform="translate(-173.43 -166.14)"/><path d="M304.4,278.16c-7.88,1.27-14.18,5.33-20.43,9.45-1.22.81-2.89,2.84-4,1.17s1.52-2,2.59-2.75c3.1-2.13,6.1-4.41,9.35-6.29,4.77-2.75,10.16-3.92,15.59-4.58,2.95-.4,6-.4,9-.56.25,0,.55-.1.76,0,.76.61,1.52,1.27,2.28,1.88-.91.21-2,.82-2.79.61-4.17-1.11-8.08.31-12.34,1.07" transform="translate(-173.43 -166.14)"/><path d="M398.88,270c3,1.07,5.79,2.14,8.54,3.25a4.43,4.43,0,0,1,1.73,1.27c.3.31.3.87.4,1.32a3.27,3.27,0,0,1-1.17.26c-3.15-.56-6.35-1-9.39-1.78-5.08-1.32-9.91-3.45-15.35-2.79a2,2,0,0,1-1.22-.05,6.34,6.34,0,0,1-1.32-1.17c.46-.41.92-1.27,1.38-1.27,4,0,7.92.1,11.88.25,1.42.1,2.85.46,4.52.71" transform="translate(-173.43 -166.14)"/><path d="M443,472.83c-2.08,1-2.69-.51-3.3-1.73s-1.12-2.64-1.68-4a39.61,39.61,0,0,1-3.61,2.28,12.56,12.56,0,0,1-3.55,1.22c-.61.1-1.78-.35-1.88-.71a3.08,3.08,0,0,1,.45-2.49,49.64,49.64,0,0,1,7.37-4.82c2-1,3.86.91,4.47,2.18,1.27,2.49,1.63,5.38,2.34,8.13,0,.05-.1.2-.15.2a1.27,1.27,0,0,1-.46-.3" transform="translate(-173.43 -166.14)"/><path d="M449.68,474.25c-3.55-9.41-.1-3.17,0-3.37,2.49,1.83,3.71,7,4.52,9.82a1.31,1.31,0,0,1-.4,1.12c-.51.05-1.42-.05-1.53-.31-1-2.33-1.72-4.67-2.59-7.26" transform="translate(-173.43 -166.14)"/><path d="M431.4,259a.9.9,0,0,1,.45.2.9.9,0,0,1-.45-.2" transform="translate(-173.43 -166.14)"/><path d="M530.35,559.44c-.15,0-.2-.15-.2-.3a.34.34,0,0,1,.2.3" transform="translate(-173.43 -166.14)"/></svg>