<?xml version="1.0" encoding="utf-8"?>
<!-- Generator: Adobe Illustrator 23.1.1, SVG Export Plug-In . SVG Version: 6.00 Build 0)  -->
<svg version="1.1" id="Layer_1" xmlns="http://www.w3.org/2000/svg" xmlns:xlink="http://www.w3.org/1999/xlink" x="0px" y="0px"
	 viewBox="0 0 150 75" style="enable-background:new 0 0 150 75;" xml:space="preserve">
<g>
	<g>
		<g>
			<path d="M36.87,12.58c1.16,17.06,1.66,34.16,1.5,51.26c-0.02,1.93,2.98,1.93,3,0c0.15-17.1-0.35-34.2-1.5-51.26
				C39.74,10.66,36.74,10.65,36.87,12.58L36.87,12.58z"/>
		</g>
	</g>
	<g>
		<g>
			<path d="M39.46,14.34c1.42-2.52,3.29-5.43,6.62-4.43c3.26,0.98,4.34,4.61,3.84,7.67c-0.58,3.57-2.7,6.85-4.57,9.87
				c-2.03,3.28-4.28,6.41-6.74,9.39c0.79,0.61,1.57,1.21,2.36,1.82c1.42-2.39,4.75-2.7,7.1-1.64c2.98,1.36,4.99,4.44,6.14,7.4
				c2.51,6.47,1.13,14.02-4.33,18.53c-1.43,1.18-3.21,2.19-5.1,2.31c-1.62,0.11-3.61-0.56-4.24-2.2c-0.69-1.78-3.59-1.01-2.89,0.8
				c1.68,4.34,6.71,5.23,10.65,3.55c4-1.71,7.07-5.3,8.73-9.26c1.76-4.21,1.86-8.96,0.51-13.3c-1.25-4.03-3.75-8.24-7.6-10.25
				c-3.85-2-9.19-1.43-11.55,2.54c-0.84,1.42,1.25,3.16,2.36,1.82c3.01-3.64,5.76-7.49,8.16-11.56c2.25-3.81,4.58-8.05,4.06-12.63
				c-0.45-4-3.2-7.48-7.34-8c-4.24-0.53-6.86,2.73-8.74,6.06C35.92,14.51,38.51,16.02,39.46,14.34L39.46,14.34z"/>
		</g>
	</g>
	<g>
		<g>
			<path d="M67.39,52.63c-1.59-8.9-2.9-17.96-2.09-27.02c0.36-4.03,1.02-8.49,2.83-12.16c0.39-0.8,0.85-1.58,1.43-2.26
				c0.51-0.6,1.44-1.78,2.32-1.65c0.8,0.12,1.46,1.06,1.95,1.63c0.69,0.81,1.29,1.68,1.83,2.59c2.09,3.47,3.19,7.41,4.13,11.32
				c1.07,4.48,1.88,9.03,2.37,13.61c0.48,4.51,0.71,9.06,0.6,13.59c-0.09,3.84-0.44,8.93-3.53,11.68c-1.52,1.36-4.04,1.79-5.45,0.07
				c-1.41-1.73-2.33-4.11-3.23-6.13c-2-4.48-3.41-9.21-4.28-14.03c-0.34-1.9-3.23-1.09-2.89,0.8c0.89,4.94,2.38,9.73,4.39,14.33
				c1.69,3.87,3.71,9.51,8.86,9.15c4.78-0.33,7.35-4.83,8.36-9.03c1.19-4.96,0.89-10.35,0.58-15.4c-0.32-5.34-1.03-10.66-2.11-15.9
				c-0.95-4.62-2.06-9.32-4.14-13.58c-1.54-3.17-5.32-9.79-9.7-7.13c-3.85,2.34-5.32,7.26-6.24,11.38
				c-2.58,11.55-0.95,23.45,1.11,34.93C64.83,55.33,67.73,54.52,67.39,52.63L67.39,52.63z"/>
		</g>
	</g>
	<g>
		<g>
			<path d="M90.93,8c-1.51,16.12-1.8,33.04,3.65,48.52c0.66,1.88,1.41,3.73,2.23,5.54c0.75,1.65,1.54,3.44,2.92,4.67
				c1.23,1.1,2.99,1.72,4.62,1.23c1.8-0.55,2.65-2.22,3.11-3.91c2.29-8.44,3.46-17.32,3.98-26.03c0.6-9.93,0.13-19.89-1.31-29.74
				c-0.28-1.9-3.17-1.09-2.89,0.8c2.34,15.99,1.9,32.43-1.33,48.26c-0.39,1.91-0.8,3.83-1.29,5.72c-0.16,0.62-0.33,1.63-0.96,1.96
				c-0.59,0.31-1.33-0.02-1.8-0.4c-1.29-1.05-1.97-2.98-2.63-4.46c-0.74-1.65-1.38-3.33-1.96-5.04c-2.39-7.01-3.58-14.36-4.03-21.74
				c-0.51-8.46-0.09-16.95,0.7-25.37C94.11,6.08,91.11,6.09,90.93,8L90.93,8z"/>
		</g>
	</g>
	<g>
		<g>
			<path d="M127.74,10.38c-0.03-0.04-0.06-0.08-0.1-0.12c0.13,0.49,0.26,0.97,0.39,1.46c-0.07,0.12-0.14,0.23-0.21,0.35
				c-0.35,0.15-0.71,0.29-1.06,0.44c0.06,0,0.11,0,0.17-0.01c-0.35-0.15-0.71-0.29-1.06-0.44c-0.19-0.46-0.24-0.39-0.15,0.2
				c0.01,0.33,0.02,0.66,0.03,0.99c0.02,0.5,0.03,0.99,0.05,1.49c0.04,1.16,0.07,2.32,0.11,3.48c0.07,2.32,0.15,4.64,0.22,6.96
				c0.14,4.47,0.28,8.95,0.42,13.42c0.29,9.12,0.58,18.23,0.87,27.35c0.06,1.93,3.06,1.93,3,0c-0.54-16.91-1.07-33.81-1.61-50.72
				c-0.04-1.16-0.03-2.33-0.11-3.48c-0.06-0.8-0.27-1.62-1.02-2.06c-0.77-0.45-1.73-0.15-2.23,0.53c-0.55,0.76-0.39,1.58,0.17,2.26
				C126.84,14,128.95,11.87,127.74,10.38L127.74,10.38z"/>
		</g>
	</g>
	<g>
		<g>
			<path d="M115.91,13.22c3.86-1.1,7.77-1.99,11.73-2.62c1.95-0.31,3.92-0.56,5.89-0.74c0.93-0.09,1.87-0.16,2.8-0.22
				c0.47-0.03,0.94-0.06,1.4-0.08c0.31-0.02,0.62-0.03,0.94-0.04c0.69,0.09,0.65-0.1-0.12-0.57c0.43,1.88,3.32,1.09,2.89-0.8
				c-0.51-2.25-3.45-1.62-5.11-1.51c-2.32,0.15-4.63,0.38-6.93,0.69c-4.83,0.65-9.6,1.65-14.28,2.99
				C113.26,10.85,114.05,13.75,115.91,13.22L115.91,13.22z"/>
		</g>
	</g>
	<g>
		<g>
			<path d="M13.7,67c-1.83-16.04-1.58-32.33,0.89-48.28c0.3-1.91,0.59-3.83,0.98-5.72c0.19-0.95,0.59-3.08,1.7-3.44
				c1.04-0.34,2.13,1.3,2.59,2.03c0.84,1.35,1.27,2.89,1.56,4.44c0.68,3.58,0.78,7.31,1.15,10.93c0.42,4.08,0.89,8.15,1.43,12.21
				c1.19,9.07,2.67,18.1,4.43,27.08c0.37,1.89,3.26,1.09,2.89-0.8c-1.71-8.71-3.16-17.48-4.32-26.28
				c-0.58-4.39-1.09-8.78-1.53-13.19c-0.38-3.81-0.46-7.74-1.31-11.49c-0.66-2.93-2.34-6.84-5.5-7.82
				c-3.32-1.03-5.32,2.51-5.92,5.22c-1.85,8.36-2.63,17.13-3.03,25.66C9.24,47.38,9.58,57.23,10.7,67
				C10.91,68.9,13.91,68.92,13.7,67L13.7,67z"/>
		</g>
	</g>
	<g>
		<g>
			<path d="M11.73,44.39c3.98-0.97,8.05-1.43,12.15-1.38c1.93,0.02,1.93-2.98,0-3c-4.35-0.05-8.71,0.45-12.94,1.49
				C9.06,41.96,9.85,44.85,11.73,44.39L11.73,44.39z"/>
		</g>
	</g>
</g>
</svg>
