<?xml version="1.0" encoding="utf-8"?>
<!-- Generator: Adobe Illustrator 23.1.1, SVG Export Plug-In . SVG Version: 6.00 Build 0)  -->
<svg version="1.1" id="Layer_1" xmlns="http://www.w3.org/2000/svg" xmlns:xlink="http://www.w3.org/1999/xlink" x="0px" y="0px"
	 viewBox="0 0 150 75" style="enable-background:new 0 0 150 75;" xml:space="preserve">
<g>
	<g>
		<g>
			<path d="M18.15,13.96c1.22-1.86-0.02-4.4-2.13-4.86c-2.49-0.55-4.44,1.46-5.31,3.56c-2.02,4.88-2.89,10.46-3.3,15.69
				C6.57,39.1,8.5,50.13,13.1,59.89c1.02,2.16,2.56,4.55,5.16,4.83c2.34,0.25,4.59-1.24,4.74-3.67c0.11-1.93-2.89-1.92-3,0
				c-0.08,1.33-2.18,0.45-2.65-0.01c-1.29-1.26-1.97-3.26-2.63-4.89c-1.48-3.6-2.6-7.36-3.36-11.18c-1.53-7.72-1.55-15.79,0-23.51
				c0.43-2.12,0.97-4.22,1.62-6.29c0.3-0.94,0.6-2.2,1.42-2.83c0.24-0.19,1.57-0.55,1.15,0.09C14.5,14.06,17.09,15.57,18.15,13.96
				L18.15,13.96z"/>
		</g>
	</g>
	<g>
		<g>
			<path d="M32.95,54.1c-1.72-6.96-2.83-13.99-3.03-21.17c-0.1-3.76-0.08-7.54,0.2-11.29c0.14-1.87,0.37-3.73,0.79-5.56
				c0.2-0.85,0.43-1.68,0.71-2.51c0.23-0.67,0.57-1.87,1.24-2.25c0.35-0.2-0.09,0.01-0.07,0.02c0.11,0.12,0.18,0.3,0.26,0.44
				c0.19,0.35,0.36,0.72,0.53,1.08c0.4,0.87,0.77,1.76,1.1,2.67c0.65,1.74,1.19,3.52,1.66,5.32c0.99,3.81,1.62,7.71,2.03,11.63
				c0.83,8,0.93,16.31-0.25,24.28c-0.14,0.96-0.75,4.9-2.36,4.48c-0.68-0.18-1.15-1.55-1.38-2.12c-0.31-0.75-0.56-1.53-0.8-2.31
				c-1.16-3.83-1.85-7.8-2.63-11.72c-0.38-1.89-3.27-1.09-2.89,0.8c0.82,4.1,1.53,8.26,2.8,12.24c0.96,2.99,3.3,8.16,7.23,5.4
				c1.6-1.13,2.37-3.06,2.75-4.92c0.47-2.25,0.63-4.59,0.8-6.88c0.37-4.87,0.41-9.77,0.12-14.65c-0.53-8.9-1.87-18.26-5.86-26.33
				c-0.8-1.61-2.23-3.08-4.16-2.24c-1.79,0.78-2.59,2.94-3.14,4.66c-1.35,4.18-1.57,8.67-1.68,13.03
				c-0.23,9.73,0.8,19.23,3.14,28.68C30.52,56.77,33.41,55.98,32.95,54.1L32.95,54.1z"/>
		</g>
	</g>
	<g>
		<g>
			<g>
				<path d="M45.58,10.63c0.43,17.4,1.26,34.8,2.5,52.16c0.14,1.91,3.14,1.93,3,0c-1.24-17.37-2.07-34.76-2.5-52.16
					C48.54,8.7,45.54,8.69,45.58,10.63L45.58,10.63z"/>
			</g>
		</g>
		<g>
			<g>
				<path d="M48.01,10.41c-0.03,0.01-0.06,0.02-0.09,0.03c0.56,0.23,1.13,0.46,1.69,0.69c-0.07,0.41-0.14,0.82-0.21,1.23
					c-0.49,0.13-0.97,0.26-1.46,0.39c-0.44-0.33-0.52-0.28-0.22,0.17c0.11,0.25,0.23,0.5,0.34,0.75c0.23,0.52,0.44,1.04,0.65,1.56
					c0.37,0.91,0.71,1.83,1.04,2.76c0.68,1.89,1.28,3.81,1.85,5.74c1.2,4.14,2.18,8.34,3.11,12.55c1.9,8.65,3.57,17.36,6.03,25.88
					c0.53,1.85,3.43,1.06,2.89-0.8c-4.39-15.23-5.97-31.32-11.72-46.15c-0.37-0.96-0.77-1.92-1.18-2.87
					c-0.33-0.75-0.6-1.69-1.29-2.2c-1.68-1.25-3.32,0.91-2.42,2.49c0.32,0.56,1.07,0.88,1.69,0.69c0.03-0.01,0.06-0.02,0.09-0.03
					C50.65,12.74,49.87,9.84,48.01,10.41L48.01,10.41z"/>
			</g>
		</g>
		<g>
			<g>
				<path d="M64.48,62.75c-0.05-17.61-0.28-35.23-1.15-52.82c-0.1-1.92-3.1-1.93-3,0c0.87,17.59,1.1,35.21,1.15,52.82
					C61.49,64.68,64.49,64.68,64.48,62.75L64.48,62.75z"/>
			</g>
		</g>
	</g>
	<g>
		<g>
			<path d="M75.22,12.97c-0.21,8.25-0.27,16.5-0.17,24.76c0.05,4.13,0.14,8.25,0.28,12.37c0.06,1.98,0.14,3.96,0.22,5.94
				c0.04,0.99,0.08,1.98,0.13,2.97c0.03,0.58,0.05,1.15,0.08,1.73c0.01,0.25,0.02,0.49,0.04,0.74c-0.07,0.57-0.01,0.65,0.2,0.24
				c0.49-0.13,0.97-0.26,1.46-0.39c-0.04-0.01-0.09-0.01-0.13-0.02c0.3,0.23,0.6,0.46,0.9,0.69c0.03,0.25,0.05,0.5,0.08,0.75
				c-0.48,0.37-0.96,0.73-1.45,1.1c0.04,0,0.07,0,0.11,0c1.93-0.05,1.93-3.05,0-3c-0.04,0-0.07,0-0.11,0
				c-0.68,0.02-1.25,0.46-1.45,1.1c-0.54,1.75,1.64,3.15,2.89,1.7c0.75-0.87,0.5-2.12,0.45-3.17c-0.06-1.15-0.11-2.31-0.16-3.46
				c-0.21-4.86-0.36-9.73-0.46-14.6c-0.2-9.82-0.16-19.64,0.09-29.46C78.27,11.04,75.27,11.04,75.22,12.97L75.22,12.97z"/>
		</g>
	</g>
	<g>
		<g>
			<path d="M69.45,15.92c1.59-1.94,3.98-2.46,6.31-2.99c2.91-0.67,5.93-1.28,8.87-0.44c1.86,0.54,2.65-2.36,0.8-2.89
				c-3.47-1-7.03-0.35-10.47,0.44c-2.81,0.64-5.73,1.44-7.64,3.76c-0.51,0.63-0.61,1.51,0,2.12C67.86,16.45,68.93,16.55,69.45,15.92
				L69.45,15.92z"/>
		</g>
	</g>
	<g>
		<g>
			<path d="M93,60.5c-0.48-11.48-0.1-23.07,0.77-34.52c0.23-3.01,0.44-6.05,1.12-9c0.17-0.73,0.36-1.46,0.6-2.18
				c0.05-0.16,0.78-1.91,0.78-1.92c-0.18,0.04-0.36,0.07-0.54,0.11c0.13,0.14,0.23,0.3,0.31,0.47c0.16,0.29,0.26,0.61,0.34,0.93
				c0.23,0.9,0.35,1.85,0.51,2.76c1.3,7.16,2.55,14.34,3.75,21.52c1.37,8.16,2.66,16.34,3.9,24.53c0.29,1.9,3.18,1.09,2.89-0.8
				c-2.4-15.87-5.04-31.71-7.92-47.51c-0.26-1.43-0.6-2.95-1.67-4.02c-1.05-1.05-2.67-1.16-3.74-0.06
				c-0.99,1.02-1.39,2.75-1.77,4.06c-0.53,1.88-0.84,3.82-1.07,5.76c-0.75,6.15-0.99,12.4-1.21,18.59C89.8,46.31,89.7,53.41,90,60.5
				C90.08,62.42,93.08,62.43,93,60.5L93,60.5z"/>
		</g>
	</g>
	<g>
		<g>
			<path d="M93.1,39.03c1.56-0.26,3.12-0.52,4.67-0.78c0.75-0.13,1.5-0.25,2.25-0.38c0.4-0.07,0.81-0.13,1.21-0.2
				c0.23-0.04,0.5-0.05,0.71-0.13c-0.27-0.96-0.53-1.93-0.8-2.89c-1.14,0.45-1.47,1.53-0.95,2.61c0.34,0.71,1.41,0.95,2.05,0.54
				c0.73-0.47,0.9-1.29,0.54-2.05c0.16,1-0.12,1.6-0.84,1.8c0.73-0.29,1.32-1.02,1.05-1.85c-0.23-0.71-1.06-1.35-1.85-1.05
				c-0.21,0.08-0.49,0.09-0.71,0.13c-0.4,0.07-0.81,0.13-1.21,0.2c-0.75,0.13-1.5,0.25-2.25,0.38c-1.56,0.26-3.12,0.52-4.67,0.78
				c-0.78,0.13-1.28,1.13-1.05,1.85C91.53,38.82,92.27,39.17,93.1,39.03L93.1,39.03z"/>
		</g>
	</g>
	<g>
		<g>
			<path d="M120.03,13.22c0.68-1.83-0.5-4.03-2.41-4.47c-2.35-0.54-3.7,2.03-4.25,3.87c-1.46,4.93-1.92,10.39-2.13,15.51
				c-0.44,10.39,0.84,21.43,4.84,31.1c0.88,2.12,2.24,4.71,4.79,5.01c2.23,0.26,4.18-1.45,4.48-3.62c0.11-0.81-0.2-1.6-1.05-1.85
				c-0.7-0.2-1.73,0.25-1.85,1.05c-0.16,1.1-0.94,1.94-1.94,1.06c-1.31-1.15-1.87-3.23-2.42-4.81c-1.27-3.69-2.21-7.48-2.86-11.33
				c-1.32-7.8-1.4-15.86-0.39-23.7c0.28-2.18,0.65-4.36,1.14-6.51c0.21-0.94,0.55-1.73,0.92-2.6c0.02-0.05,0.15-0.21,0.2-0.24
				c-0.07,0.04-0.15-0.22-0.04,0.06c0.15,0.34,0.22,0.26,0.07,0.66C116.47,14.24,119.37,15.02,120.03,13.22L120.03,13.22z"/>
		</g>
	</g>
	<g>
		<g>
			<path d="M131,10.5c0.39,17.43,1.15,34.86,1.54,52.29c0.04,1.93,3.04,1.93,3,0c-0.39-17.43-1.15-34.86-1.54-52.29
				C133.96,8.57,130.96,8.57,131,10.5L131,10.5z"/>
		</g>
	</g>
	<g>
		<g>
			<path d="M125.76,12.43c4.01-1.03,8.1-1.56,12.24-1.58c1.93-0.01,1.93-3.01,0-3c-4.39,0.02-8.78,0.6-13.03,1.69
				C123.1,10.02,123.89,12.91,125.76,12.43L125.76,12.43z"/>
		</g>
	</g>
</g>
</svg>
