<?xml version="1.0" encoding="utf-8"?>
<!-- Generator: Adobe Illustrator 23.1.1, SVG Export Plug-In . SVG Version: 6.00 Build 0)  -->
<svg version="1.1" id="Layer_1" xmlns="http://www.w3.org/2000/svg" xmlns:xlink="http://www.w3.org/1999/xlink" x="0px" y="0px"
	 viewBox="0 0 150 75" style="enable-background:new 0 0 150 75;" xml:space="preserve">
<g>
	<g>
		<g>
			<path d="M21.54,9.29c0.68,18.75,1.99,37.48,3.93,56.14c0.2,1.9,3.2,1.92,3,0c-1.94-18.66-3.25-37.39-3.93-56.14
				C24.47,7.37,21.47,7.36,21.54,9.29L21.54,9.29z"/>
		</g>
	</g>
	<g>
		<g>
			<path d="M24.64,10.19c1.74-1.16,3.73-1.52,5.8-1.47c1.93,0.05,3.84,0.32,5.3,1.68c3.28,3.06,3.04,8.33,2.88,12.43
				c-0.37,9.5-3.06,18.74-6.41,27.58c-1.92,5.07-4.08,10.03-6.26,14.99c-0.77,1.75,1.82,3.28,2.59,1.51
				c4.3-9.81,8.63-19.72,11.1-30.18c1.22-5.15,1.98-10.44,2.02-15.74c0.04-4.61-0.39-9.91-4.21-13.08
				c-3.73-3.1-10.39-2.96-14.34-0.33C21.52,8.67,23.02,11.27,24.64,10.19L24.64,10.19z"/>
		</g>
	</g>
	<g>
		<g>
			<path d="M51.44,64.79c-1.16-7.9-1.7-15.89-1.61-23.88c0.08-7.39,0.52-14.91,2.44-22.08c0.42-1.55,0.91-3.09,1.48-4.59
				c0.32-0.83,0.67-1.66,1.05-2.46c0.38-0.8,0.76-2,1.38-2.65c0.04-0.04-0.2-0.42,0,0.06c0.12,0.28,0.24,0.51,0.33,0.8
				c0.27,0.89,0.46,1.81,0.66,2.71c0.4,1.81,0.73,3.64,1,5.48c1.1,7.57,1.13,15.25,1.27,22.88c0.15,8.54,0.41,17.11,2.1,25.5
				c0.38,1.89,3.27,1.09,2.89-0.8c-3.31-16.4-0.89-33.29-3.58-49.76c-0.32-1.99-0.72-3.96-1.22-5.92c-0.37-1.47-0.88-3.18-2.38-3.87
				c-1.63-0.75-3.04,0.31-3.84,1.69c-0.99,1.68-1.77,3.51-2.47,5.32c-2.83,7.31-3.66,15.26-3.99,23.04
				c-0.41,9.8,0.16,19.6,1.59,29.3C48.82,67.49,51.71,66.68,51.44,64.79L51.44,64.79z"/>
		</g>
	</g>
	<g>
		<g>
			<path d="M47.97,37.8c-0.11,0.27-0.1,0.54-0.07,0.82c0.01,0.11,0.03,0.23,0.05,0.34c0.05,0.29,0.05,0.19,0.01-0.29
				c-0.33,0.78,0.36,1.6,1.05,1.85c2.08,0.74,4.3,0.88,6.48,1.06c1.96,0.16,3.99,0.36,5.76,1.29c0.72,0.38,1.63,0.18,2.05-0.54
				c0.4-0.68,0.18-1.67-0.54-2.05c-4.06-2.15-8.73-1.17-12.95-2.66c0.35,0.62,0.7,1.23,1.05,1.85c0.11-0.27,0.1-0.54,0.07-0.82
				c-0.01-0.11-0.03-0.23-0.05-0.34c-0.05-0.29-0.05-0.19-0.01,0.29c0.31-0.75-0.34-1.65-1.05-1.85
				C48.95,36.51,48.29,37.05,47.97,37.8L47.97,37.8z"/>
		</g>
	</g>
	<g>
		<g>
			<path d="M75.51,9.31c-0.89,17.57-1.86,35.14-2.89,52.7c-0.1,1.62-0.9,4.75,1.13,5.54c1.76,0.68,3.11-1.72,1.75-2.95
				c-0.49-0.44-1.23-0.59-1.82-0.23c-0.03,0.02-0.07,0.04-0.1,0.06c-1.65,0.99-0.15,3.59,1.51,2.59c0.03-0.02,0.07-0.04,0.1-0.06
				c-0.61-0.08-1.21-0.16-1.82-0.23c-0.07-0.44-0.14-0.88-0.21-1.32c0.3-0.23,0.6-0.46,0.9-0.69c-0.05,0.01-0.09,0.02-0.14,0.03
				c0.39,0.05,0.77,0.1,1.16,0.15c0.34,0.51,0.47,0.46,0.38-0.15c0.02-0.33,0.04-0.66,0.06-0.99c0.03-0.58,0.07-1.15,0.1-1.73
				c0.07-1.15,0.14-2.31,0.2-3.46c0.14-2.39,0.28-4.78,0.42-7.17c0.27-4.62,0.53-9.24,0.78-13.85c0.52-9.4,1.02-18.8,1.49-28.21
				C78.61,7.38,75.61,7.39,75.51,9.31L75.51,9.31z"/>
		</g>
	</g>
	<g>
		<g>
			<path d="M68.95,8.59c1.27-0.52,2.63-0.41,3.98-0.41c1.5,0,3,0.01,4.51,0.01c3.06,0.01,6.13,0.01,9.19,0.02c1.93,0,1.93-3,0-3
				c-3.18-0.01-6.37-0.01-9.55-0.02c-1.56,0-3.12-0.01-4.69-0.01c-1.43,0-2.89-0.03-4.23,0.52c-0.75,0.31-1.28,1-1.05,1.85
				C67.3,8.25,68.19,8.9,68.95,8.59L68.95,8.59z"/>
		</g>
	</g>
	<g>
		<g>
			<path d="M94.24,6.82c-0.69,9.39-1.37,18.79-2.06,28.18c-0.34,4.61-0.68,9.23-1.01,13.84c-0.17,2.39-0.35,4.78-0.52,7.17
				c-0.14,1.92-0.35,3.95,0.39,5.79c0.81,2,2.7,3.31,4.42,4.5c1.92,1.32,4,2.36,6.2,3.14c1.82,0.65,2.6-2.25,0.8-2.89
				c-1.74-0.62-3.39-1.46-4.94-2.47c-1.41-0.92-3.37-2.08-3.84-3.81c-0.48-1.79-0.05-3.91,0.08-5.73c0.16-2.23,0.33-4.45,0.49-6.68
				c0.64-8.74,1.28-17.47,1.92-26.21c0.36-4.94,0.72-9.89,1.09-14.83C97.38,4.9,94.38,4.91,94.24,6.82L94.24,6.82z"/>
		</g>
	</g>
	<g>
		<g>
			<path d="M95.39,33.88c2.39,0.49,4.83,0.77,7.27,0.8c0.78,0.01,1.54-0.7,1.5-1.5c-0.04-0.82-0.66-1.49-1.5-1.5
				c-1.13-0.02-2.26-0.08-3.38-0.2c-0.29-0.03-0.57-0.06-0.86-0.1c0.27,0.04-0.02,0-0.13-0.02c-0.13-0.02-0.26-0.04-0.4-0.06
				c-0.57-0.09-1.14-0.19-1.71-0.31c-0.77-0.16-1.66,0.22-1.85,1.05C94.17,32.78,94.56,33.71,95.39,33.88L95.39,33.88z"/>
		</g>
	</g>
	<g>
		<g>
			<path d="M96.58,7.82c1.93-0.14,3.87-0.28,5.8-0.42c0.72-0.05,1.43-0.12,2.14-0.09c0.18,0.02,0.17,0.02-0.02,0
				c0.08,0.02,0.17,0.03,0.25,0.06c0.12,0.03,0.34,0.14,0.12,0.02c0.08,0.04,0.44,0.33,0.24,0.13c0.07,0.06,0.13,0.13,0.19,0.2
				c-0.08-0.11-0.07-0.09,0.03,0.06c0.44,0.68,1.33,0.96,2.05,0.54c0.68-0.4,0.98-1.37,0.54-2.05c-0.55-0.86-1.32-1.49-2.31-1.78
				c-0.79-0.23-1.62-0.21-2.43-0.15c-2.2,0.16-4.4,0.32-6.6,0.48c-0.78,0.06-1.54,0.65-1.5,1.5C95.11,7.09,95.74,7.88,96.58,7.82
				L96.58,7.82z"/>
		</g>
	</g>
	<g>
		<g>
			<path d="M127.67,14.08c1.75-2.12,1.53-5.01-0.29-7.04c-1.88-2.11-5.04-2.45-7.61-1.56c-6.11,2.12-8.35,9.99-7.96,15.85
				c0.23,3.48,1.6,6.5,3.61,9.31c1.88,2.62,3.99,5.04,5.56,7.87c3.15,5.69,4.47,12.42,3.56,18.87c-0.46,3.25-1.35,7.16-4.66,8.62
				c-1.42,0.63-3.19,0.76-4.55-0.08c-1.24-0.76-2.04-2.16-1.6-3.6c0.56-1.85-2.33-2.64-2.89-0.8c-0.81,2.69,0.56,5.42,2.84,6.9
				c2.47,1.6,5.75,1.3,8.23-0.09c5.48-3.06,6.17-11.13,5.87-16.72c-0.35-6.37-2.5-12.61-6.22-17.8c-1.85-2.59-4.07-4.96-5.49-7.82
				c-1.55-3.11-1.54-6.68-0.76-10c0.75-3.15,2.21-6.71,5.62-7.71c1.37-0.4,3.06-0.4,4.13,0.67c0.75,0.75,1.25,2.11,0.5,3.03
				C124.33,13.44,126.44,15.57,127.67,14.08L127.67,14.08z"/>
		</g>
	</g>
</g>
</svg>
