<?xml version="1.0" encoding="utf-8"?>
<!-- Generator: Adobe Illustrator 23.1.1, SVG Export Plug-In . SVG Version: 6.00 Build 0)  -->
<svg version="1.1" id="Layer_1" xmlns="http://www.w3.org/2000/svg" xmlns:xlink="http://www.w3.org/1999/xlink" x="0px" y="0px"
	 viewBox="0 0 150 75" style="enable-background:new 0 0 150 75;" xml:space="preserve">
<g>
	<g>
		<g>
			<path d="M10.31,13.56c2.14,16.43-0.97,33.56,4.38,49.53c0.61,1.82,3.51,1.04,2.89-0.8c-5.26-15.7-2.18-32.58-4.28-48.73
				c-0.11-0.81-0.61-1.49-1.5-1.5C11.08,12.05,10.2,12.75,10.31,13.56L10.31,13.56z"/>
		</g>
	</g>
	<g>
		<g>
			<path d="M4.45,13.01c-0.09,0.2-0.19,0.4-0.28,0.6c-0.63,1.35,0.66,2.77,2.05,2.05c3.45-1.79,7-3.34,10.67-4.63
				c0.76-0.27,1.27-1.02,1.05-1.85c-0.2-0.74-1.08-1.32-1.85-1.05c-3.9,1.38-7.71,3.03-11.38,4.93c0.68,0.68,1.37,1.37,2.05,2.05
				c0.09-0.2,0.19-0.4,0.28-0.6c0.34-0.73,0.21-1.62-0.54-2.05C5.85,12.09,4.8,12.28,4.45,13.01L4.45,13.01z"/>
		</g>
	</g>
	<g>
		<g>
			<path d="M11.18,68.07c3.16-2.71,6.77-4.97,10.63-6.54c0.75-0.3,1.28-1,1.05-1.85c-0.2-0.71-1.09-1.35-1.85-1.05
				c-4.38,1.78-8.37,4.24-11.96,7.31c-0.62,0.53-0.54,1.58,0,2.12C9.67,68.68,10.56,68.6,11.18,68.07L11.18,68.07z"/>
		</g>
	</g>
	<g>
		<g>
			<path d="M26.06,11.44c-0.05-0.43-0.1-0.86-0.15-1.29c-0.22-1.86-3.05-1.98-3,0c0.44,18.26,0.88,36.52,1.33,54.78
				c0.05,1.93,3.04,1.94,3,0c-0.02-0.95-0.04-1.91-0.06-2.86c-0.04-1.93-3.04-1.93-3,0c0.02,0.95,0.04,1.91,0.06,2.86c1,0,2,0,3,0
				c-0.44-18.26-0.88-36.52-1.33-54.78c-1,0-2,0-3,0c0.05,0.43,0.1,0.86,0.15,1.29C23.29,13.33,26.29,13.36,26.06,11.44L26.06,11.44
				z"/>
		</g>
	</g>
	<g>
		<g>
			<path d="M24.35,11.05c1.42,5.17,2.85,10.35,4.27,15.52c1.33,4.84,2.32,10.01,4.55,14.53c0.55,1.11,2.51,0.89,2.74-0.36
				c0.86-4.73,1.72-9.46,2.58-14.19c0.39-2.13,0.73-4.27,1.22-6.37c0.41-1.75,0.89-3.69,2.06-5.11c-0.85-0.35-1.71-0.71-2.56-1.06
				c1.38,17.23,2.43,34.49,3.14,51.76c0.08,1.92,3.08,1.93,3,0c-0.71-17.27-1.76-34.53-3.14-51.76c-0.09-1.15-1.66-2.16-2.56-1.06
				c-2.69,3.27-3.14,7.82-3.88,11.85c-0.92,5.05-1.84,10.1-2.76,15.15c0.91-0.12,1.83-0.24,2.74-0.36c-1.08-2.18-1.7-4.55-2.35-6.89
				c-0.68-2.47-1.36-4.94-2.04-7.4c-1.38-5.02-2.76-10.03-4.14-15.05C26.73,8.39,23.83,9.18,24.35,11.05L24.35,11.05z"/>
		</g>
	</g>
	<g>
		<g>
			<path d="M51.84,62.08c0.04,0.55,0.08,1.1,0.13,1.65c0.15,1.91,3.13,1.94,3,0C54.03,49.52,53.27,35.2,54.79,21
				c0.17-1.56,0.35-3.13,0.6-4.68c0.14-0.85,0.31-1.69,0.53-2.52c0.07-0.25,0.85-2.31,0.86-2.31c-0.22,0.09-0.43,0.17-0.65,0.26
				c0.11,0.15,0.2,0.31,0.27,0.48c0.17,0.33,0.3,0.67,0.43,1.02c0.26,0.69,0.49,1.39,0.7,2.09c0.5,1.73,0.86,3.49,1.15,5.26
				c1.15,6.99,1.92,14.06,2.7,21.09c0.91,8.12,1.68,16.25,2.32,24.4c0.15,1.91,3.15,1.93,3,0c-0.63-8.06-1.4-16.11-2.29-24.15
				c-0.86-7.67-1.63-15.43-2.99-23.03c-0.31-1.76-0.7-3.51-1.25-5.22c-0.47-1.46-0.98-3.23-2.14-4.3c-3.15-2.94-4.85,2.7-5.3,4.85
				c-1.55,7.38-1.75,15.22-1.8,22.73c-0.07,8.93,0.45,17.85,1.04,26.76c1,0,2,0,3,0c-0.04-0.55-0.08-1.1-0.13-1.65
				C54.69,60.17,51.69,60.16,51.84,62.08L51.84,62.08z"/>
		</g>
	</g>
	<g>
		<g>
			<path d="M54.15,49.47c0.3-0.18,0.6-0.35,0.91-0.51c0.12-0.06,0.23-0.12,0.35-0.17c0.06-0.03,0.56-0.23,0.23-0.11
				c0.57-0.22,1.15-0.41,1.75-0.55c0.14-0.03,0.29-0.06,0.43-0.09c0.07-0.01,0.61-0.1,0.22-0.04c0.29-0.04,0.58-0.06,0.87-0.08
				c0.63-0.03,1.25,0,1.87,0.07c0.78,0.09,1.53-0.76,1.5-1.5c-0.04-0.89-0.66-1.4-1.5-1.5c-2.83-0.34-5.73,0.4-8.15,1.88
				c-0.67,0.41-0.98,1.36-0.54,2.05C52.53,49.6,53.43,49.91,54.15,49.47L54.15,49.47z"/>
		</g>
	</g>
	<g>
		<g>
			<path d="M81.89,16.84c0.36-2.59-0.27-5.51-2.41-7.22c-1.88-1.51-4.23-1.06-5.77,0.69c-1.69,1.93-2.4,4.63-2.97,7.07
				c-0.7,3.02-1.21,6.09-1.55,9.18c-0.66,6.07-0.54,12.31,0.92,18.26c0.98,4.01,3.78,12.6,9.56,9.9c2.7-1.26,4.2-4.38,4.84-7.14
				c0.83-3.56,0.66-7.26,0.49-10.88c-1,0-2,0-3,0c0.75,10.25,1.98,20.47,3.68,30.61c0.32,1.9,3.21,1.09,2.89-0.8
				c-1.66-9.88-2.84-19.82-3.57-29.81c-0.14-1.91-3.1-1.94-3,0c0.22,4.45,0.85,10.32-2.14,14.06c-1.12,1.4-2.51,1.96-3.83,0.48
				c-1.44-1.62-2.13-3.95-2.71-6c-2.56-9.06-1.75-19.19,0.59-28.21c0.28-1.09,0.6-2.19,1.09-3.21c0.33-0.69,0.84-1.78,1.63-2.07
				c1.83-0.68,2.52,3.21,2.36,4.3C78.73,17.93,81.62,18.75,81.89,16.84L81.89,16.84z"/>
		</g>
	</g>
	<g>
		<g>
			<path d="M93.42,11.58c0.44,18.3,0.87,36.61,1.31,54.91c0.05,1.93,3.05,1.93,3,0c-0.44-18.3-0.87-36.61-1.31-54.91
				C96.37,9.66,93.37,9.65,93.42,11.58L93.42,11.58z"/>
		</g>
	</g>
	<g>
		<g>
			<path d="M95.03,12.72c1.42-0.35,2.84-0.76,4.28-0.99c0.07-0.01,0.14-0.02,0.21-0.03c-0.16,0.02-0.16,0.02,0.02,0
				c0.16-0.01,0.33-0.03,0.49-0.04c0.33-0.02,0.65,0,0.98,0.02c0.11,0.01,0.09,0.01-0.05-0.01c0.09,0.02,0.18,0.03,0.27,0.05
				c0.16,0.04,0.32,0.08,0.47,0.13c0.07,0.02,0.13,0.05,0.2,0.07c-0.14-0.06-0.13-0.05,0.04,0.03c0.17,0.1,0.35,0.2,0.52,0.31
				c0.66,0.43,1.69,0.15,2.05-0.54c0.4-0.75,0.16-1.59-0.54-2.05c-2.96-1.96-6.62-0.61-9.74,0.15c-0.76,0.19-1.29,1.09-1.05,1.85
				C93.44,12.46,94.21,12.92,95.03,12.72L95.03,12.72z"/>
		</g>
	</g>
	<g>
		<g>
			<path d="M96.63,68.81c3.41-1.03,6.91-1.68,10.46-1.88c0.81-0.05,1.5-0.66,1.5-1.5c0-0.78-0.69-1.55-1.5-1.5
				c-3.82,0.21-7.6,0.88-11.26,1.99c-0.78,0.23-1.27,1.05-1.05,1.85C94.99,68.54,95.85,69.05,96.63,68.81L96.63,68.81z"/>
		</g>
	</g>
	<g>
		<g>
			<path d="M96.8,38.93c0.54-0.13,1.09-0.25,1.64-0.35c0.25-0.04,0.51-0.1,0.76-0.12c-0.35,0.02,0.03,0,0.11-0.01
				c0.15-0.02,0.3-0.03,0.45-0.05c1.08-0.11,2.17-0.14,3.25-0.1c0.78,0.03,1.54-0.71,1.5-1.5c-0.04-0.84-0.66-1.47-1.5-1.5
				c-2.35-0.09-4.72,0.18-7.01,0.73c-0.76,0.19-1.29,1.09-1.05,1.85C95.22,38.67,95.99,39.13,96.8,38.93L96.8,38.93z"/>
		</g>
	</g>
	<g>
		<g>
			<path d="M108.49,11.79c0.66,15.77,1.5,31.53,2.53,47.28c0.12,1.92,3.13,1.93,3,0c-1.02-15.75-1.87-31.51-2.53-47.28
				C111.41,9.86,108.41,9.85,108.49,11.79L108.49,11.79z"/>
		</g>
	</g>
	<g>
		<g>
			<path d="M110.95,12.63c1.21-2.35,3.8-2.96,5.77-1.1c2.26,2.13,2.89,5.47,2.89,8.45c-0.01,6.09-2.38,12.43-6.6,16.85
				c-1,1.05-0.02,2.96,1.46,2.51c2.43-0.75,4.68,0.85,6.11,2.72c1.83,2.37,2.63,5.43,3.17,8.32c1.16,6.16,1.07,12.52,3.57,18.37
				c0.76,1.77,3.34,0.24,2.59-1.51c-2.77-6.49-2.05-13.87-3.95-20.59c-1.47-5.2-5.87-12.19-12.3-10.2c0.49,0.84,0.97,1.67,1.46,2.51
				c5.39-5.65,8.41-14.33,7.25-22.1c-0.52-3.46-2.24-7.34-5.61-8.88c-3.22-1.47-6.82,0.07-8.4,3.15
				C107.48,12.83,110.07,14.35,110.95,12.63L110.95,12.63z"/>
		</g>
	</g>
	<g>
		<g>
			<path d="M130.36,8.44c-0.38-0.92-0.9-1.45-1.83-1.82c-1.28-0.51-2.28,1.16-1.69,2.2c2.72,4.83,5.47,9.65,8.23,14.46
				c0.96,1.67,3.56,0.16,2.59-1.51c-2.77-4.81-5.51-9.63-8.23-14.46c-0.56,0.73-1.13,1.47-1.69,2.2c-0.15-0.03-0.23-0.12-0.26-0.27
				c0.31,0.75,1,1.28,1.85,1.05C130.02,10.09,130.67,9.19,130.36,8.44L130.36,8.44z"/>
		</g>
	</g>
	<g>
		<g>
			<path d="M141.87,6.58c-0.02-0.05-0.05-0.09-0.07-0.14c-0.08,0.61-0.16,1.21-0.23,1.82c0.04-0.05,0.09-0.11,0.13-0.16
				c-0.35,0.15-0.71,0.29-1.06,0.44c0.07,0,0.13,0,0.2-0.01c-0.35-0.15-0.71-0.29-1.06-0.44c-0.26-0.59-0.38-0.57-0.35,0.06
				c-0.04,0.32-0.09,0.65-0.13,0.97c-0.08,0.65-0.17,1.3-0.25,1.95c-0.14,1.14-0.28,2.27-0.41,3.41c-0.28,2.44-0.54,4.88-0.76,7.32
				c-0.46,4.96-0.8,9.94-0.98,14.92c-0.37,9.87-0.12,19.76,0.92,29.59c0.16,1.54,2.59,2.2,2.95,0.4c0.07-0.34,0.13-0.67,0.2-1.01
				c0.37-1.89-2.52-2.69-2.89-0.8c-0.07,0.34-0.13,0.67-0.2,1.01c0.98,0.13,1.96,0.27,2.95,0.4c-1.81-16.99-1.19-34.14,0.74-51.1
				c0.27-2.36,0.57-4.7,0.87-7.06c0.1-0.78,0.11-1.59-0.53-2.18c-0.7-0.64-1.85-0.57-2.45,0.17c-0.45,0.55-0.56,1.17-0.23,1.82
				c0.02,0.05,0.05,0.09,0.07,0.14C140.14,9.82,142.73,8.3,141.87,6.58L141.87,6.58z"/>
		</g>
	</g>
</g>
</svg>
