<?xml version="1.0" encoding="utf-8"?>
<!-- Generator: Adobe Illustrator 23.1.1, SVG Export Plug-In . SVG Version: 6.00 Build 0)  -->
<svg version="1.1" id="Layer_1" xmlns="http://www.w3.org/2000/svg" xmlns:xlink="http://www.w3.org/1999/xlink" x="0px" y="0px"
	 viewBox="0 0 150 75" style="enable-background:new 0 0 150 75;" xml:space="preserve">
<g>
	<g>
		<g>
			<path d="M18.94,66c-1.21-17.98-1.57-36.01-1.08-54.03c-0.98,0.13-1.96,0.27-2.95,0.4c1.3,4.06,3.02,7.93,4.76,11.82
				c1.75,3.9,3.16,7.88,4.08,12.06c0.4,1.8,2.74,1.14,2.95-0.4c0.56-4.25,1.43-8.41,2.73-12.49c1.31-4.1,2.53-8.18,3.44-12.39
				c-0.96,0-1.93,0-2.89,0c4.56,17.99,4.09,36.67,7.27,54.89c0.33,1.9,3.22,1.09,2.89-0.8c-3.18-18.22-2.7-36.89-7.27-54.89
				c-0.35-1.4-2.58-1.46-2.89,0c-0.93,4.3-2.19,8.46-3.52,12.64c-1.35,4.26-2.17,8.6-2.76,13.04c0.98-0.13,1.96-0.27,2.95-0.4
				c-0.93-4.21-2.36-8.22-4.11-12.15c-1.71-3.87-3.44-7.69-4.73-11.73c-0.51-1.6-2.9-1.32-2.95,0.4
				C14.36,29.99,14.72,48.02,15.94,66C16.07,67.92,19.07,67.93,18.94,66L18.94,66z"/>
		</g>
	</g>
	<g>
		<g>
			<path d="M44.73,15.3c2.92,16.76,5.19,33.63,6.81,50.57c0.15,1.54,2.63,2.2,2.95,0.4c-0.1,0.13-0.2,0.26-0.3,0.39
				c-0.49,0.13-0.97,0.26-1.46,0.39c-0.15-0.05-0.85-0.47-0.3-0.12c0.19,0.12,0.36,0.22,0.58,0.29c0.46,0.14,1.15,0.01,1.46-0.39
				c0.24-0.3,0.41-0.55,0.47-0.93c0.33-1.89-2.56-2.7-2.89-0.8c0.1-0.13,0.2-0.26,0.3-0.39c0.49-0.13,0.97-0.26,1.46-0.39
				c0.15,0.05,0.85,0.47,0.3,0.12c-0.19-0.12-0.36-0.22-0.58-0.29c-0.46-0.14-1.15-0.01-1.46,0.39c-0.24,0.3-0.41,0.55-0.47,0.93
				c0.98,0.13,1.96,0.27,2.95,0.4c-1.65-17.2-3.95-34.34-6.92-51.37C47.29,12.6,44.4,13.4,44.73,15.3L44.73,15.3z"/>
		</g>
	</g>
	<g>
		<g>
			<path d="M54.21,67.5c3.32-0.4,6.59-1.07,9.79-2.07c0.75-0.23,1.3-1.06,1.05-1.85c-0.24-0.75-1.04-1.3-1.85-1.05
				c-2.92,0.9-6.09,1.61-8.99,1.96c-0.78,0.09-1.54,0.62-1.5,1.5C52.74,66.73,53.37,67.6,54.21,67.5L54.21,67.5z"/>
		</g>
	</g>
	<g>
		<g>
			<path d="M51.77,38.27c0.19-0.09,0.37-0.18,0.56-0.26c0,0,0.43-0.19,0.21-0.1c0.33-0.14,0.67-0.27,1.01-0.39
				c0.65-0.24,1.31-0.44,1.97-0.62c0.66-0.17,1.33-0.32,2.01-0.43c0.15-0.02,0.3-0.05,0.45-0.07c-0.27,0.04,0.3-0.04,0.35-0.04
				c0.35-0.04,0.7-0.07,1.05-0.09c0.78-0.05,1.54-0.66,1.5-1.5c-0.03-0.77-0.66-1.55-1.5-1.5c-3.19,0.2-6.25,1.03-9.13,2.4
				c-0.71,0.34-0.95,1.41-0.54,2.05C50.19,38.46,51.01,38.63,51.77,38.27L51.77,38.27z"/>
		</g>
	</g>
	<g>
		<g>
			<path d="M46.19,15.5c3.18-1.13,6.41-2.14,9.67-3.03c0.76-0.21,1.3-1.08,1.05-1.85c-0.25-0.77-1.03-1.27-1.85-1.05
				c-3.26,0.89-6.48,1.9-9.67,3.03c-0.74,0.26-1.31,1.04-1.05,1.85C44.58,15.18,45.4,15.78,46.19,15.5L46.19,15.5z"/>
		</g>
	</g>
	<g>
		<g>
			<path d="M69.2,10.95c0.65,18.4,2.08,36.77,4.31,55.05c0.23,1.89,3.23,1.92,3,0c-2.23-18.28-3.66-36.65-4.31-55.05
				C72.13,9.03,69.13,9.02,69.2,10.95L69.2,10.95z"/>
		</g>
	</g>
	<g>
		<g>
			<path d="M106.89,10.54c-2.67-3.59-7.88-2.89-10.53,0.39c-1.52,1.88-2.29,4.2-2.75,6.54c-0.55,2.79-0.86,5.66-1.05,8.5
				c-0.39,5.78-0.11,11.58,0.77,17.29c0.82,5.34,1.93,11.25,4.78,15.94c1.3,2.14,3.21,4.57,5.99,4.39c2.82-0.18,4.88-2.57,6.46-4.66
				c1.16-1.54-1.44-3.04-2.59-1.51c-0.91,1.2-2.62,3.45-4.38,3.19c-1.67-0.25-2.91-2.84-3.58-4.17c-1.94-3.85-2.83-8.36-3.56-12.57
				c-0.8-4.66-1.14-9.4-1.06-14.13c0.08-4.37,0.34-8.97,1.51-13.2c0.51-1.85,1.38-3.93,3.15-4.9c1.27-0.69,3.26-0.89,4.24,0.42
				C105.44,13.59,108.05,12.09,106.89,10.54L106.89,10.54z"/>
		</g>
	</g>
	<g>
		<g>
			<path d="M113.17,8.06c1.02,9.59,2.04,19.17,3.06,28.76c0.51,4.79,1.02,9.59,1.53,14.38c0.25,2.31,0.49,4.63,0.74,6.94
				c0.12,1.16,0.25,2.31,0.37,3.47c0.07,0.66,0.14,1.32,0.21,1.98c0.04,0.33,0.07,0.66,0.11,0.99c-0.02,0.86,0.22,0.7,0.72-0.49
				c0.39,0.05,0.77,0.1,1.16,0.15c-0.02-0.01-0.04-0.03-0.06-0.04c-0.25,0.93-0.5,1.86-0.76,2.8c0.05,0,0.09,0,0.14,0.01
				c1.93,0.1,1.92-2.9,0-3c-0.05,0-0.09,0-0.14-0.01c-1.52-0.08-1.99,2.07-0.76,2.8c0.71,0.42,1.67,0.23,2.26-0.34
				c0.78-0.76,0.44-1.91,0.34-2.86c-0.28-2.64-0.56-5.29-0.84-7.93c-0.56-5.29-1.13-10.58-1.69-15.87
				c-1.13-10.58-2.25-21.16-3.38-31.73C115.97,6.16,112.97,6.14,113.17,8.06L113.17,8.06z"/>
		</g>
	</g>
	<g>
		<g>
			<path d="M119.48,39.85c4.13-0.71,8.29-1.19,12.42-1.91c0.8-0.14,1.25-1.12,1.05-1.85c-0.23-0.84-1.04-1.19-1.85-1.05
				c-4.13,0.71-8.29,1.19-12.42,1.91c-0.8,0.14-1.25,1.12-1.05,1.85C117.87,39.65,118.68,39.99,119.48,39.85L119.48,39.85z"/>
		</g>
	</g>
	<g>
		<g>
			<path d="M127,4.5c1.44,19.05,3.65,38.04,6,57c0.23,1.89,3.24,1.91,3,0c-2.35-18.96-4.56-37.95-6-57
				C129.86,2.59,126.85,2.57,127,4.5L127,4.5z"/>
		</g>
	</g>
	<g>
		<g>
			<path d="M72,10.5c-0.03-0.66,1.12-1,1.64-1.16c0.92-0.29,2.02-0.53,2.96-0.21c2.97,0.99,3.14,4.87,2.97,7.43
				c-0.43,6.25-2.76,12.29-6.38,17.37c-0.48,0.68-0.1,1.65,0.54,2.05c4.81,3.03,6.7,8.46,8.48,13.57
				c1.86,5.35,3.88,10.86,8.37,14.59c1.48,1.22,3.61-0.89,2.12-2.12c-4.54-3.76-6.23-9.41-8.12-14.76
				c-1.91-5.41-4.29-10.69-9.33-13.87c0.18,0.68,0.36,1.37,0.54,2.05c2.37-3.33,4.19-7.05,5.35-10.96c1.13-3.8,2.01-8.25,1.23-12.2
				c-0.67-3.4-3.43-6.54-7.12-6.27C72.78,6.18,68.84,7.4,69,10.5C69.1,12.42,72.1,12.43,72,10.5L72,10.5z"/>
		</g>
	</g>
</g>
</svg>
