<?xml version="1.0" encoding="utf-8"?>
<!-- Generator: Adobe Illustrator 23.1.1, SVG Export Plug-In . SVG Version: 6.00 Build 0)  -->
<svg version="1.1" id="Layer_1" xmlns="http://www.w3.org/2000/svg" xmlns:xlink="http://www.w3.org/1999/xlink" x="0px" y="0px"
	 viewBox="0 0 150 75" style="enable-background:new 0 0 150 75;" xml:space="preserve">
<g>
	<g>
		<g>
			<path d="M12.92,8.41c0.33,1.14-0.11,2.47-0.28,3.61c-0.19,1.25-0.35,2.5-0.51,3.76c-0.3,2.4-0.53,4.81-0.71,7.23
				c-0.37,5.01-0.5,10.03-0.49,15.06c0.04,10.09,0.69,20.17,1.34,30.23c0.13,1.92,3.13,1.93,3,0c-0.67-10.23-1.33-20.47-1.35-30.72
				c-0.01-5.02,0.14-10.04,0.52-15.05c0.2-2.57,0.46-5.15,0.79-7.71c0.3-2.27,1.21-4.95,0.56-7.2C15.28,5.76,12.38,6.55,12.92,8.41
				L12.92,8.41z"/>
		</g>
	</g>
	<g>
		<g>
			<path d="M13.76,10.14c1,4.03,2.42,7.94,3.78,11.86c1.41,4.04,2.81,8.08,4.22,12.12c2.78,7.98,5.55,15.96,8.33,23.94
				c1.29,3.7,2.32,8.05,5.27,10.84c0.98,0.92,2.49,0.23,2.56-1.06c0.57-9.71-0.56-19.41-1.11-29.1c-0.56-9.79-0.79-19.6-0.72-29.4
				c0.01-1.93-2.99-1.93-3,0c-0.07,9.81,0.16,19.61,0.72,29.4c0.55,9.69,1.68,19.38,1.11,29.1c0.85-0.35,1.71-0.71,2.56-1.06
				c-2.49-2.36-3.33-6.16-4.42-9.29c-1.34-3.86-2.69-7.73-4.03-11.59c-2.73-7.84-5.46-15.69-8.18-23.53
				c-1.5-4.3-3.09-8.59-4.19-13.02C16.18,7.47,13.29,8.26,13.76,10.14L13.76,10.14z"/>
		</g>
	</g>
	<g>
		<g>
			<path d="M48.99,10.47c-0.14-0.09-0.28-0.19-0.42-0.28c-0.12,0.91-0.24,1.83-0.36,2.74c5-1.13,10.2-1.33,15.26-0.54
				c0.8,0.13,1.61-0.2,1.85-1.05c0.2-0.71-0.24-1.72-1.05-1.85c-5.63-0.88-11.3-0.71-16.86,0.54c-1.34,0.3-1.36,2.06-0.36,2.74
				c0.14,0.09,0.28,0.19,0.42,0.28C49.07,14.15,50.58,11.55,48.99,10.47L48.99,10.47z"/>
		</g>
	</g>
	<g>
		<g>
			<path d="M49.84,11.76c-0.07-2.34-3.12-2.47-3.61-0.24c-0.26,1.16-0.13,2.49-0.16,3.68c-0.03,1.32-0.06,2.64-0.09,3.95
				c-0.1,5.11-0.12,10.22-0.08,15.33c0.09,10.38,0.46,20.75,1.12,31.11c0.04,0.59,0.43,1.35,1.1,1.45
				c4.73,0.67,9.46,1.34,14.19,2.01c0.81,0.11,1.6-0.2,1.85-1.05c0.2-0.7-0.25-1.73-1.05-1.85c-4.73-0.67-9.46-1.34-14.19-2.01
				c0.37,0.48,0.73,0.96,1.1,1.45c-0.57-8.96-0.92-17.93-1.07-26.91c-0.07-4.45-0.09-8.9-0.05-13.35c0.02-2.22,0.05-4.45,0.09-6.67
				c0.02-1.15,0.05-2.31,0.08-3.46c0.01-0.49,0.03-0.99,0.04-1.48c0.01-0.36-0.12-1.26,0.08-1.56c-0.3,0.23-0.6,0.46-0.9,0.69
				c0.08-0.01,0.16-0.03,0.24-0.04c-0.49-0.13-0.97-0.26-1.46-0.39c0.07,0.05,0.13,0.11,0.2,0.16c-0.15-0.35-0.29-0.71-0.44-1.06
				c0,0.08,0,0.17,0.01,0.25C46.9,13.69,49.9,13.7,49.84,11.76L49.84,11.76z"/>
		</g>
	</g>
	<g>
		<g>
			<path d="M70.84,9.17c2.21,19.3,5.19,38.52,8.96,57.58c0.29,1.45,2.59,1.42,2.89,0c4.08-18.83,3.69-38.5,9.63-56.94
				c-0.98-0.13-1.96-0.27-2.95-0.4c0.7,10.05,2.48,20.1,4.5,29.96c0.98,4.79,2.67,9.39,3.71,14.17c1.07,4.95,1.69,9.99,2.3,15.02
				c0.23,1.92,2.78,1.94,3,0c1.14-10.17,2.28-20.34,3.42-30.51c0.56-4.96,0.92-9.99,2.18-14.84c1.23-4.77,2.76-9.47,4.16-14.19
				c0.55-1.85-2.34-2.65-2.89-0.8c-1.44,4.87-3.04,9.72-4.27,14.65c-1.2,4.8-1.56,9.78-2.11,14.68
				c-1.16,10.34-2.32,20.67-3.48,31.01c1,0,2,0,3,0c-0.59-4.9-1.18-9.81-2.16-14.65c-0.99-4.88-2.71-9.55-3.76-14.41
				c-2.13-9.87-3.88-20.01-4.59-30.09c-0.12-1.67-2.41-2.05-2.95-0.4c-5.94,18.44-5.55,38.11-9.63,56.94c0.96,0,1.93,0,2.89,0
				c-3.71-18.8-6.67-37.74-8.85-56.78C73.62,7.27,70.62,7.25,70.84,9.17L70.84,9.17z"/>
		</g>
	</g>
	<g>
		<g>
			<path d="M48.65,40.07c2.47,0.34,4.95,0.68,7.42,1.02c0.42,0.06,0.78,0.07,1.16-0.15c0.31-0.18,0.61-0.54,0.69-0.9
				c0.16-0.71-0.22-1.73-1.05-1.85c-2.47-0.34-4.95-0.68-7.42-1.02c-0.42-0.06-0.78-0.07-1.16,0.15c-0.31,0.18-0.61,0.54-0.69,0.9
				C47.44,38.93,47.82,39.95,48.65,40.07L48.65,40.07z"/>
		</g>
	</g>
	<g>
		<g>
			<path d="M137.18,11.45c-3.38-6.27-11.19-4.4-15.72-0.59c-4.98,4.18-7.9,11.86-4.91,18c1.27,2.63,3.63,4.39,6.06,5.88
				c2.95,1.82,5.87,3.76,8.27,6.29c2.68,2.82,3.38,6.4,3.57,10.17c0.17,3.59,0.07,7.3-1.08,10.74c-1.07,3.2-3.46,6.09-6.93,6.7
				c-1.88,0.33-3.83-0.12-5.57-0.84c-1.51-0.62-4.14-1.67-4.81-3.32c-0.72-1.77-3.62-0.99-2.89,0.8c1.28,3.17,5.04,4.9,8.14,5.86
				c3.06,0.94,6.35,0.78,9.16-0.82c6.27-3.59,7.21-11.72,7.01-18.24c-0.11-3.6-0.5-7.39-2.42-10.52c-1.86-3.02-4.84-5.35-7.71-7.35
				c-2.38-1.66-5.21-2.88-7.11-5.14c-2.22-2.65-2.24-6.31-1.21-9.45c1.16-3.52,3.73-6.57,7.04-8.26c2.99-1.52,6.75-1.69,8.52,1.61
				C135.51,14.67,138.1,13.15,137.18,11.45L137.18,11.45z"/>
		</g>
	</g>
</g>
</svg>
